{
  "accessors": [
    {
      "bufferView": 2,
      "componentType": 5126,
      "count": 3296,
      "max": [
        1.9550000429153442,
        5.300000190734863,
        1.3776600360870361
      ],
      "min": [
        -1.9550000429153442,
        -2.3624401092529297,
        -1.0
      ],
      "type": "VEC3"
    },
    {
      "bufferView": 2,
      "byteOffset": 39552,
      "componentType": 5126,
      "count": 3296,
      "max": [
        1.0,
        1.0,
        1.0
      ],
      "min": [
        -1.0,
        -1.0,
        -1.0
      ],
      "type": "VEC3"
    },
    {
      "bufferView": 1,
      "componentType": 5126,
      "count": 3296,
      "max": [
        0.9680799841880798,
        0.988319993019104
      ],
      "min": [
        0.011669999919831753,
        0.26201000809669495
      ],
      "type": "VEC2"
    },
    {
      "bufferView": 1,
      "byteOffset": 26368,
      "componentType": 5126,
      "count": 3296,
      "max": [
        0.9680799841880798,
        0.988319993019104
      ],
      "min": [
        0.011669999919831753,
        0.26201000809669495
      ],
      "type": "VEC2"
    },
    {
      "bufferView": 1,
      "byteOffset": 52736,
      "componentType": 5126,
      "count": 3296,
      "max": [
        0.9680799841880798,
        0.988319993019104
      ],
      "min": [
        0.011669999919831753,
        0.26201000809669495
      ],
      "type": "VEC2"
    },
    {
      "bufferView": 0,
      "componentType": 5125,
      "count": 6132,
      "type": "SCALAR"
    },
    {
      "bufferView": 2,
      "byteOffset": 79104,
      "componentType": 5126,
      "count": 4516,
      "max": [
        1.3224999904632568,
        4.317969799041748,
        1.4289300441741943
      ],
      "min": [
        -1.3224999904632568,
        -2.441119909286499,
        0.3876599967479706
      ],
      "type": "VEC3"
    },
    {
      "bufferView": 2,
      "byteOffset": 133296,
      "componentType": 5126,
      "count": 4516,
      "max": [
        1.0,
        1.0,
        1.0
      ],
      "min": [
        -1.0,
        -1.0,
        -1.0
      ],
      "type": "VEC3"
    },
    {
      "bufferView": 1,
      "byteOffset": 79104,
      "componentType": 5126,
      "count": 4516,
      "max": [
        0.961139976978302,
        0.3589400053024292
      ],
      "min": [
        0.567330002784729,
        0.025119999423623085
      ],
      "type": "VEC2"
    },
    {
      "bufferView": 1,
      "byteOffset": 115232,
      "componentType": 5126,
      "count": 4516,
      "max": [
        0.961139976978302,
        0.3589400053024292
      ],
      "min": [
        0.567330002784729,
        0.025119999423623085
      ],
      "type": "VEC2"
    },
    {
      "bufferView": 1,
      "byteOffset": 151360,
      "componentType": 5126,
      "count": 4516,
      "max": [
        0.961139976978302,
        0.3589400053024292
      ],
      "min": [
        0.567330002784729,
        0.025119999423623085
      ],
      "type": "VEC2"
    },
    {
      "bufferView": 0,
      "byteOffset": 24528,
      "componentType": 5125,
      "count": 6708,
      "type": "SCALAR"
    }
  ],
  "asset": {
    "extras": {
      "author": "Lilly! (https://sketchfab.com/LillyTr)",
      "license": "CC-BY-4.0 (http://creativecommons.org/licenses/by/4.0/)",
      "source": "https://sketchfab.com/3d-models/day-19-sled-9914be12d3a24db8abc6f6a621403045",
      "title": "Day 19 - Sled"
    },
    "generator": "Sketchfab-14.1.2",
    "version": "2.0"
  },
  "bufferViews": [
    {
      "buffer": 0,
      "byteLength": 51360,
      "name": "floatBufferViews",
      "target": 34963
    },
    {
      "buffer": 0,
      "byteLength": 187488,
      "byteOffset": 51360,
      "byteStride": 8,
      "name": "floatBufferViews",
      "target": 34962
    },
    {
      "buffer": 0,
      "byteLength": 187488,
      "byteOffset": 238848,
      "byteStride": 12,
      "name": "floatBufferViews",
      "target": 34962
    }
  ],
  "buffers": [
    {
      "byteLength": 426336,
      "uri": "scene.bin"
    }
  ],
  "extensionsUsed": [
    "KHR_materials_clearcoat"
  ],
  "images": [
    {
      "uri": "textures/Material_baseColor.png"
    },
    {
      "uri": "textures/Steel_baseColor.png"
    }
  ],
  "materials": [
    {
      "doubleSided": true,
      "name": "Material",
      "pbrMetallicRoughness": {
        "baseColorFactor": [
          0.5931783536585366,
          0.5931783536585366,
          0.5931783536585366,
          1.0
        ],
        "baseColorTexture": {
          "index": 0
        },
        "metallicFactor": 0.0
      }
    },
    {
      "doubleSided": true,
      "extensions": {
        "KHR_materials_clearcoat": {
          "clearcoatFactor": 0.22122713414634146,
          "clearcoatRoughnessFactor": 0.04
        }
      },
      "name": "Steel",
      "pbrMetallicRoughness": {
        "baseColorTexture": {
          "index": 1
        },
        "metallicFactor": 0.4529344512195122,
        "roughnessFactor": 0.0
      }
    }
  ],
  "meshes": [
    {
      "name": "Cube_0",
      "primitives": [
        {
          "attributes": {
            "NORMAL": 1,
            "POSITION": 0,
            "TEXCOORD_0": 2,
            "TEXCOORD_1": 3,
            "TEXCOORD_2": 4
          },
          "indices": 5,
          "material": 0,
          "mode": 4
        }
      ]
    },
    {
      "name": "Cube_1",
      "primitives": [
        {
          "attributes": {
            "NORMAL": 7,
            "POSITION": 6,
            "TEXCOORD_0": 8,
            "TEXCOORD_1": 9,
            "TEXCOORD_2": 10
          },
          "indices": 11,
          "material": 1,
          "mode": 4
        }
      ]
    }
  ],
  "nodes": [
    {
      "children": [
        1
      ],
      "matrix": [
        1.0,
        0.0,
        0.0,
        0.0,
        0.0,
        2.220446049250313e-16,
        -1.0,
        0.0,
        0.0,
        1.0,
        2.220446049250313e-16,
        0.0,
        0.0,
        0.0,
        0.0,
        1.0
      ],
      "name": "Sketchfab_model"
    },
    {
      "children": [
        2,
        4,
        7
      ],
      "name": "Root"
    },
    {
      "children": [
        3
      ],
      "matrix": [
        -0.5997900000000002,
        0.28477,
        0.7477700000000002,
        0.0,
        -0.6643600000000001,
        -0.6980900000000002,
        -0.26704,
        0.0,
        0.4459600000000001,
        -0.6569500000000001,
        0.6078900000000002,
        0.0,
        5.42123,
        -5.96848,
        8.0708,
        1.0
      ],
      "name": "Lamp"
    },
    {
      "name": "Lamp"
    },
    {
      "children": [
        5,
        6
      ],
      "name": "Cube"
    },
    {
      "mesh": 0,
      "name": "Cube_0"
    },
    {
      "mesh": 1,
      "name": "Cube_1"
    },
    {
      "children": [
        8
      ],
      "matrix": [
        -0.09675000000000003,
        0.18839000000000003,
        -0.97732,
        0.0,
        -0.99397,
        0.03252000000000001,
        0.10467000000000001,
        0.0,
        0.05150000000000001,
        0.9815599999999999,
        0.1841,
        0.0,
        0.05498000000000001,
        21.91629,
        1.3800000000000001,
        1.0
      ],
      "name": "Lamp.001"
    },
    {
      "name": "Lamp.001"
    }
  ],
  "samplers": [
    {
      "magFilter": 9729,
      "minFilter": 9987,
      "wrapS": 10497,
      "wrapT": 10497
    }
  ],
  "scene": 0,
  "scenes": [
    {
      "name": "Sketchfab_Scene",
      "nodes": [
        0
      ]
    }
  ],
  "textures": [
    {
      "sampler": 0,
      "source": 0
    },
    {
      "sampler": 0,
      "source": 1
    }
  ]
}
